<svg width="40" height="47" viewBox="0 0 40 47" fill="none" xmlns="http://www.w3.org/2000/svg">
<path d="M20 27L25 23L31.7 26.2C32.9 27 33.6 28.7 34.1 30C34.6 31.3 38.8 40.1 38.8 40.1C39.3 41.2 38.8 42.6 37.8 43.2L33.8 46C31.7 46 27 46 27 46C23 46 23 40 27 40H29V31H11V40H13C17 40 17 46 13 46C13 46 8.3 46 6.2 46L2.2 43.2C1.2 42.6 0.699998 41.2 1.2 40.1C1.2 40.1 5.4 31.3 5.9 30C6.4 28.7 7.1 27 8.3 26.2L15 23L20 27Z" stroke="white" stroke-width="2" stroke-miterlimit="10"/>
<path d="M20.1 1C16.2 1 13 3.4 13 10C13 16.6 16.1 19 20 19C23.9 19 27 16.6 27 10C27 3.4 24 1 20.1 1Z" stroke="white" stroke-width="2" stroke-miterlimit="10"/>
</svg>
