<svg width="48" height="48" viewBox="0 0 48 48" fill="none" xmlns="http://www.w3.org/2000/svg">
<path d="M45 6V39H19V28" stroke="white" stroke-width="2" stroke-miterlimit="10"/>
<path d="M19 17V6" stroke="white" stroke-width="2" stroke-miterlimit="10"/>
<path d="M10 17C12.3 17 14 15.1 14 12.7V11.3C14 8.9 12.3 7 10 7C7.7 7 6 8.9 6 11.3V12.7C6 15.1 7.7 17 10 17Z" stroke="white" stroke-width="2" stroke-miterlimit="10"/>
<path d="M15 48V24H21C24 24 25 22.2 25 20C23.4 20 7.8 20 6 20C2.4 20 1 21.5 1 26V33C1 35.1 1.9 37 4 37" stroke="white" stroke-width="2" stroke-miterlimit="10"/>
<path d="M10 34V48" stroke="white" stroke-width="2" stroke-miterlimit="10"/>
<path d="M5 26V48" stroke="white" stroke-width="2" stroke-miterlimit="10"/>
<path d="M23 29H28L30 25H35L39 15H42" stroke="white" stroke-width="2" stroke-miterlimit="10"/>
<path d="M47 1H17V6H47V1Z" stroke="white" stroke-width="2" stroke-miterlimit="10"/>
</svg>
