<svg width="50" height="45" viewBox="0 0 50 45" fill="none" xmlns="http://www.w3.org/2000/svg">
<path d="M44.3558 34.4153C44.3558 35.4563 43.4837 36.3284 42.4427 36.3284H7.53765C6.49404 36.3284 5.62457 35.4679 5.62457 34.4153V11.6028C5.62457 10.5501 6.48501 9.6897 7.53765 9.6897H15.0674" stroke="white" stroke-width="2" stroke-miterlimit="22.9256" stroke-linecap="round" stroke-linejoin="round"/>
<path d="M34.9671 9.6897H42.4427C43.4953 9.6897 44.3558 10.554 44.3558 11.6028V34.4153C44.3558 35.4679 43.4863 36.3284 42.4427 36.3284H7.53765C6.49791 36.3284 5.62457 35.455 5.62457 34.4153" stroke="white" stroke-width="2" stroke-miterlimit="22.9256" stroke-linecap="round" stroke-linejoin="round"/>
<path d="M44.0578 36.4548L48.9404 43.3461" stroke="white" stroke-width="2" stroke-miterlimit="22.9256" stroke-linecap="round" stroke-linejoin="round"/>
<path d="M48.9404 43.3459C49.161 43.6336 48.6089 44 48.2258 44" stroke="white" stroke-width="2" stroke-miterlimit="22.9256" stroke-linecap="round" stroke-linejoin="round"/>
<path d="M48.2258 44.0001H1.76229C1.38947 44.0001 0.833481 43.6479 1.04762 43.3461L5.93159 36.4548" stroke="white" stroke-width="2" stroke-miterlimit="22.9256" stroke-linecap="round" stroke-linejoin="round"/>
<path d="M30.2624 12.9469C29.4239 15.9746 27.1432 18.1792 24.9747 18.2889C22.7997 18.1792 20.5113 15.9604 19.6792 12.9186L19.269 12.9856C18.8059 13.0605 18.3673 12.7276 18.295 12.2452L17.8925 9.55294C17.8203 9.07047 18.1402 8.61381 18.6046 8.53899L18.8962 8.49126C18.7659 8.06943 18.6962 7.6205 18.6962 7.15481V6.16538C18.6962 3.74145 20.6016 1.75742 22.93 1.75742H23.4344C23.4293 1.67486 23.4383 1.59488 23.4654 1.52135C23.726 0.806686 25.4623 0.829906 27.3431 1.57166C27.743 1.73033 28.1171 1.90706 28.4564 2.0954C29.9864 2.76105 31.0687 4.33744 31.0687 6.16538V7.1561C31.0687 7.62179 30.999 8.07072 30.8687 8.49255L31.1603 8.54028C31.6234 8.6151 31.9446 9.07176 31.8723 9.55423L31.4699 12.2452C31.3976 12.7276 30.959 13.0605 30.4959 12.9856L30.2624 12.9469Z" stroke="white" stroke-width="2" stroke-miterlimit="22.9256" stroke-linecap="round" stroke-linejoin="round"/>
<path d="M10.0312 35.2797L9.27141 26.5631V25.8084C9.27141 24.1276 10.9058 23.1575 12.2694 22.8698C13.5142 22.6066 18.175 21.5553 19.6843 20.4678L19.7759 20.4536" stroke="white" stroke-width="2" stroke-miterlimit="22.9256" stroke-linecap="round" stroke-linejoin="round"/>
<path d="M22.5056 35.304L24.1439 24.9891L22.7559 21.2649H27.2361L25.848 24.9891L27.4399 35.304" stroke="white" stroke-width="2" stroke-miterlimit="22.9256" stroke-linecap="round" stroke-linejoin="round"/>
<path d="M30.2147 20.4536L30.3063 20.4678C31.8156 21.5553 36.4751 22.6066 37.7199 22.8698C39.0835 23.1575 40.7179 24.1301 40.7179 25.8084V26.5631L39.9581 35.2797" stroke="white" stroke-width="2" stroke-miterlimit="22.9256" stroke-linecap="round" stroke-linejoin="round"/>
<path d="M31.3022 8.54929C31.1345 7.6192 29.7026 5.17979 27.8449 4.78247C24.7309 8.47834 19.7682 3.52729 18.6885 8.15713" stroke="white" stroke-width="2" stroke-miterlimit="22.9256" stroke-linecap="round" stroke-linejoin="round"/>
</svg>
